<?xml version="1.0" encoding="UTF-8"?>
<!DOCTYPE svg PUBLIC "-//W3C//DTD SVG 1.1//EN" "http://www.w3.org/Graphics/SVG/1.1/DTD/svg11.dtd">
<!-- Creator: CorelDRAW 2020 (64-Bit) -->
<svg xmlns="http://www.w3.org/2000/svg" xml:space="preserve" width="89.212mm" height="89.212mm" version="1.1" style="shape-rendering:geometricPrecision; text-rendering:geometricPrecision; image-rendering:optimizeQuality; fill-rule:evenodd; clip-rule:evenodd"
viewBox="0 0 8921.2 8921.2"
 xmlns:xlink="http://www.w3.org/1999/xlink"
 xmlns:xodm="http://www.corel.com/coreldraw/odm/2003">
 <defs>
  <style type="text/css">
   <![CDATA[
    .str0 {stroke:#FEFEFE;stroke-width:232.83;stroke-miterlimit:22.9256}
    .fil1 {fill:none}
    .fil0 {fill:#334D97}
   ]]>
  </style>
 </defs>
 <g id="Capa_x0020_1">
  <metadata id="CorelCorpID_0Corel-Layer"/>
  <g id="_1855130913104">
   <circle class="fil0" cx="4486.09" cy="4452.48" r="4460.61"/>
   <g>
    <path class="fil1 str0" d="M4498.23 3876.32l-18.08 -1808.05c3.57,-210.97 -15,-335.75 -271.21,-325.45l-560.5 0c-158.22,6.39 -224.18,136.33 -216.96,325.45l0 2477.03 -958.27 -705.14c-335.51,-227.58 -713.86,-37.92 -560.5,488.17l1428.36 2115.43c-3.69,463.27 148.55,587.2 361.62,578.58l2079.26 0c444.73,-410.62 707.63,-873.15 826.46,-1376.88l26.19 -1466.6c-19.42,-239.98 -123.18,-359.46 -305.55,-366.65l-279.35 0"/>
    <line class="fil1 str0" x1="3431.48" y1="4545.3" x2="3431.48" y2= "4961.15" />
    <path class="fil1 str0" d="M5333.86 3436.83l244.43 0c175.08,11.48 280.68,103.62 314.27,279.35l0 951.55"/>
    <path class="fil1 str0" d="M4657.05 3122.39l244.43 0c175.08,11.48 280.68,103.62 314.27,279.35l0 951.55"/>
   </g>
  </g>
 </g>
</svg>
